<svg xmlns="http://www.w3.org/2000/svg" width="300" height="50" viewBox="0 0 300 50"><g fill="none" fill-rule="evenodd"><path fill="#17368C" fill-rule="nonzero" d="M39.5138556,13.562405 C38.4157153,20.1033989 34.7024264,25.7582474 29.4850883,29.4166299 L33.991567,37.2166106 L28.4556844,35.7343148 L32.0181955,49.999734 L20.0542181,29.2921603 L25.5901007,30.7744561 L23.9509769,27.9373997 C25.1890016,27.371759 26.3601084,26.6851772 27.4491642,25.8927769 C31.4666637,22.9696318 34.367568,18.6064506 35.3921732,13.562405 L39.5138556,13.562405 Z M76.8397279,22.6342273 C77.8517976,22.6342273 78.6494339,22.8143387 79.2326606,23.1745669 C79.8158872,23.5347951 80.2189937,23.9293249 80.4419921,24.358168 L80.4419921,22.8658014 L83.7354909,22.8658014 L83.7354909,34.161473 C83.7354909,35.036313 83.6111283,35.8725445 83.3623993,36.6701927 C83.1136702,37.467841 82.7234289,38.1711331 82.1916634,38.7800904 C81.6598979,39.3890476 80.9737592,39.8779215 80.1332266,40.2467266 C79.2926941,40.6155317 78.2806395,40.7999314 77.0970325,40.7999314 C76.2221925,40.7999314 75.4288446,40.6755688 74.716965,40.4268398 C74.0050854,40.1781108 73.3832722,39.8436181 72.8515067,39.4233519 C72.3197412,39.0030856 71.8909045,38.5142118 71.5649837,37.9567157 C71.239063,37.3992196 71.0332213,36.8202901 70.9474527,36.2199097 L74.0351078,35.396535 C74.1551839,36.0998377 74.472523,36.6744789 74.9871348,37.1204758 C75.5017466,37.5664726 76.1707318,37.7894677 76.9941106,37.7894677 C78.0747953,37.7894677 78.9067385,37.5107239 79.4899652,36.9532278 C80.0731918,36.3957317 80.3648008,35.499463 80.3648008,34.2643948 L80.3648008,33.3380983 C80.1074949,33.7497877 79.6872349,34.1228756 79.1040083,34.4573732 C78.5207816,34.7918709 77.766029,34.9591172 76.8397279,34.9591172 C75.9991953,34.9591172 75.2187125,34.804736 74.4982561,34.4959689 C73.7777996,34.1872019 73.1559864,33.7583652 72.6327978,33.209446 C72.1096092,32.6605268 71.6979259,32.0129834 71.3977357,31.2667963 C71.0975456,30.5206093 70.9474527,29.7015312 70.9474527,28.8095375 C70.9474527,27.9690049 71.0932572,27.175657 71.3848705,26.42947 C71.6764838,25.6832829 72.0795903,25.0271628 72.5942021,24.4610899 C73.1088139,23.8950169 73.7263387,23.4490268 74.4467952,23.123106 C75.1672516,22.7971852 75.9648879,22.6342273 76.8397279,22.6342273 Z M122.279719,22.5827663 C123.20602,22.5827663 124.029386,22.7500127 124.749843,23.0845103 C125.470299,23.4190079 126.083536,23.8821516 126.589571,24.4739551 C127.095606,25.0657586 127.47727,25.7604741 127.734576,26.5581223 C127.991882,27.3557705 128.120533,28.226309 128.120533,29.1697639 C128.120533,30.1303725 127.979017,31.0180645 127.69598,31.8328664 C127.412944,32.6476684 127.009837,33.3509605 126.486649,33.9427641 C125.96346,34.5345676 125.33307,34.9977112 124.59546,35.3322089 C123.85785,35.6667065 123.04306,35.8339528 122.151066,35.8339528 C121.276226,35.8339528 120.525762,35.68386 119.899651,35.3836698 C119.27354,35.0834796 118.806108,34.7189684 118.497341,34.2901253 L118.497341,40.4139745 L115.07519,40.4139745 L115.07519,22.8658014 L118.394419,22.8658014 L118.394419,24.4096289 C118.686033,23.9121709 119.16633,23.4833342 119.835325,23.123106 C120.50432,22.7628778 121.31911,22.5827663 122.279719,22.5827663 Z M244.602321,22.4798445 C246.575,22.4798445 248.110235,23.0630624 249.208074,24.2295157 C250.305912,25.395969 250.854823,26.9998183 250.854823,29.0411116 C250.854823,29.2812637 250.846246,29.5085472 250.829093,29.7229688 C250.811939,29.9373903 250.803362,30.061753 250.803362,30.0960604 L241.74624,30.0960604 C241.763394,30.5077498 241.862027,30.8894145 242.042141,31.2410659 C242.222255,31.5927172 242.453827,31.8971913 242.736863,32.1544972 C243.0199,32.411803 243.350104,32.6133563 243.727486,32.7591629 C244.104868,32.9049696 244.507974,32.9778718 244.936817,32.9778718 C245.743043,32.9778718 246.373432,32.7977604 246.828006,32.4375322 C247.28258,32.077304 247.612784,31.6141603 247.818629,31.0480874 L250.67471,31.8971926 C250.520326,32.4461118 250.275889,32.9650042 249.941392,33.4538853 C249.606894,33.9427665 249.199499,34.3673148 248.719195,34.7275431 C248.238891,35.0877713 247.677115,35.3750919 247.03385,35.5895135 C246.390585,35.803935 245.683005,35.9111442 244.911087,35.9111442 C244.036247,35.9111442 243.204304,35.7610513 242.415232,35.4608612 C241.626161,35.160671 240.931446,34.7189692 240.331065,34.1357425 C239.730685,33.5525159 239.254676,32.8406469 238.903025,32.0001144 C238.551373,31.1595819 238.37555,30.2075644 238.37555,29.1440334 C238.37555,28.1319636 238.547085,27.2142531 238.89016,26.3908743 C239.233234,25.5674955 239.692089,24.8684917 240.266739,24.2938419 C240.841389,23.7191921 241.506086,23.2732019 242.26085,22.955858 C243.015614,22.6385141 243.796096,22.4798445 244.602321,22.4798445 Z M135.325062,22.4798445 C137.29774,22.4798445 138.832975,23.0630624 139.930814,24.2295157 C141.028652,25.395969 141.577563,26.9998183 141.577563,29.0411116 C141.577563,29.2812637 141.568986,29.5085472 141.551833,29.7229688 C141.534679,29.9373903 141.526102,30.061753 141.526102,30.0960604 L132.468981,30.0960604 C132.486134,30.5077498 132.584767,30.8894145 132.764881,31.2410659 C132.944995,31.5927172 133.176567,31.8971913 133.459603,32.1544972 C133.74264,32.411803 134.072844,32.6133563 134.450226,32.7591629 C134.827608,32.9049696 135.230714,32.9778718 135.659557,32.9778718 C136.465783,32.9778718 137.096173,32.7977604 137.550746,32.4375322 C138.00532,32.077304 138.335524,31.6141603 138.541369,31.0480874 L141.39745,31.8971926 C141.243066,32.4461118 140.998629,32.9650042 140.664132,33.4538853 C140.329634,33.9427665 139.922239,34.3673148 139.441935,34.7275431 C138.961631,35.0877713 138.399855,35.3750919 137.75659,35.5895135 C137.113325,35.803935 136.405745,35.9111442 135.633827,35.9111442 C134.758987,35.9111442 133.927044,35.7610513 133.137972,35.4608612 C132.348901,35.160671 131.654186,34.7189692 131.053805,34.1357425 C130.453425,33.5525159 129.977416,32.8406469 129.625765,32.0001144 C129.274113,31.1595819 129.09829,30.2075644 129.09829,29.1440334 C129.09829,28.1319636 129.269825,27.2142531 129.6129,26.3908743 C129.955974,25.5674955 130.414829,24.8684917 130.989479,24.2938419 C131.564129,23.7191921 132.228826,23.2732019 132.98359,22.955858 C133.738354,22.6385141 134.518836,22.4798445 135.325062,22.4798445 Z M207.52473,22.4798445 C209.497408,22.4798445 211.032644,23.0630624 212.130482,24.2295157 C213.22832,25.395969 213.777231,26.9998183 213.777231,29.0411116 C213.777231,29.2812637 213.768655,29.5085472 213.751501,29.7229688 L213.743639,29.8226746 L213.732203,29.9770574 C213.727915,30.0392392 213.725771,30.0789067 213.725771,30.0960604 L204.668649,30.0960604 C204.685803,30.5077498 204.784435,30.8894145 204.964549,31.2410659 C205.144663,31.5927172 205.376235,31.8971913 205.659272,32.1544972 C205.942308,32.411803 206.272512,32.6133563 206.649894,32.7591629 C207.027276,32.9049696 207.430383,32.9778718 207.859226,32.9778718 C208.665451,32.9778718 209.295841,32.7977604 209.750415,32.4375322 C210.204988,32.077304 210.535193,31.6141603 210.741037,31.0480874 L213.597118,31.8971926 C213.442735,32.4461118 213.198298,32.9650042 212.8638,33.4538853 C212.529303,33.9427665 212.121908,34.3673148 211.641603,34.7275431 C211.161299,35.0877713 210.599523,35.3750919 209.956258,35.5895135 C209.312994,35.803935 208.605413,35.9111442 207.833495,35.9111442 C206.958655,35.9111442 206.126712,35.7610513 205.337641,35.4608612 C204.548569,35.160671 203.853854,34.7189692 203.253474,34.1357425 C202.653093,33.5525159 202.177085,32.8406469 201.825433,32.0001144 C201.473782,31.1595819 201.297959,30.2075644 201.297959,29.1440334 C201.297959,28.1319636 201.469493,27.2142531 201.812568,26.3908743 C202.155642,25.5674955 202.614498,24.8684917 203.189147,24.2938419 C203.763797,23.7191921 204.428494,23.2732019 205.183258,22.955858 C205.938022,22.6385141 206.718505,22.4798445 207.52473,22.4798445 Z M106.68706,16.8963349 C107.784899,16.8963349 108.724051,17.0464277 109.504546,17.3466179 C110.28504,17.6468081 110.932584,18.0284727 111.447195,18.4916233 C111.961807,18.9547739 112.360625,19.4650896 112.643662,20.0225856 C112.926698,20.5800817 113.119675,21.1161276 113.222597,21.6307393 L110.03202,22.6084968 C109.980559,22.3511909 109.890503,22.0724471 109.76185,21.7722569 C109.633197,21.4720667 109.440221,21.1933228 109.182915,20.936017 C108.925609,20.6787111 108.595405,20.4642927 108.192292,20.2927555 C107.78918,20.1212182 107.296018,20.0354509 106.712791,20.0354509 C106.283948,20.0354509 105.893706,20.0997764 105.542055,20.2284293 C105.190404,20.3570823 104.890218,20.5286169 104.641489,20.7430385 C104.39276,20.9574601 104.199783,21.201897 104.062554,21.4763566 C103.925324,21.7508162 103.85671,22.0424252 103.85671,22.3511922 C103.85671,22.8486502 104.019668,23.2817753 104.345589,23.6505804 C104.671509,24.0193855 105.16896,24.2723991 105.837955,24.4096289 L108.385271,24.8985077 C109.20865,25.0528912 109.937672,25.3016165 110.57236,25.644691 C111.207048,25.9877655 111.738805,26.3951603 112.167648,26.8668878 C112.596491,27.3386152 112.922407,27.8660844 113.145406,28.449311 C113.368404,29.0325377 113.479902,29.6414858 113.479902,30.2761736 C113.479902,30.9794764 113.334097,31.6699034 113.042484,32.3474756 C112.750871,33.0250477 112.326322,33.6254191 111.768826,34.1486077 C111.21133,34.6717964 110.525191,35.0963447 109.710389,35.4222655 C108.895587,35.7481862 107.956435,35.9111442 106.892904,35.9111442 C105.67499,35.9111442 104.628628,35.7353211 103.753788,35.3836698 C102.878948,35.0320184 102.145637,34.5817399 101.553834,34.0328207 C100.96203,33.4839015 100.511752,32.870665 100.202985,32.1930928 C99.8942177,31.5155207 99.7055295,30.8508238 99.6369146,30.1989823 L102.930413,29.3241466 C102.964721,29.7701435 103.07193,30.1989802 103.252044,30.6106696 C103.432158,31.022359 103.685172,31.3868702 104.011093,31.7042141 C104.337013,32.021558 104.74012,32.2745717 105.220424,32.4632627 C105.700729,32.6519536 106.266793,32.7462977 106.918635,32.7462977 C107.879243,32.7462977 108.612554,32.5361677 109.118589,32.1159015 C109.624624,31.6956352 109.877637,31.1595893 109.877637,30.5077478 C109.877637,29.9759823 109.688949,29.517127 109.311567,29.1311682 C108.934185,28.7452094 108.385274,28.483619 107.664818,28.3463892 L105.117502,27.83178 C103.659436,27.5401667 102.497288,26.9440837 101.631025,26.0435131 C100.764762,25.1429425 100.331637,23.9979485 100.331637,22.6084968 C100.331637,21.8022717 100.498883,21.0518075 100.833381,20.3570816 C101.167879,19.6623557 101.626734,19.057696 102.209961,18.5430842 C102.793187,18.0284725 103.470749,17.625366 104.242667,17.3337527 C105.014584,17.0421393 105.829374,16.8963349 106.68706,16.8963349 Z M148.782092,22.4798445 C150.75477,22.4798445 152.290005,23.0630624 153.387844,24.2295157 C154.485682,25.395969 155.034593,26.9998183 155.034593,29.0411116 C155.034593,29.2812637 155.026017,29.5085472 155.008863,29.7229688 C154.991709,29.9373903 154.983132,30.061753 154.983132,30.0960604 L145.926011,30.0960604 C145.943164,30.5077498 146.041797,30.8894145 146.221911,31.2410659 C146.402025,31.5927172 146.633597,31.8971913 146.916633,32.1544972 C147.19967,32.411803 147.529874,32.6133563 147.907256,32.7591629 C148.284638,32.9049696 148.687744,32.9778718 149.116588,32.9778718 C149.922813,32.9778718 150.553203,32.7977604 151.007776,32.4375322 C151.46235,32.077304 151.792554,31.6141603 151.998399,31.0480874 L154.85448,31.8971926 C154.700096,32.4461118 154.45566,32.9650042 154.121162,33.4538853 C153.786664,33.9427665 153.379269,34.3673148 152.898965,34.7275431 C152.418661,35.0877713 151.856885,35.3750919 151.21362,35.5895135 C150.570355,35.803935 149.862775,35.9111442 149.090857,35.9111442 C148.216017,35.9111442 147.384074,35.7610513 146.595003,35.4608612 C145.805931,35.160671 145.111216,34.7189692 144.510835,34.1357425 C143.910455,33.5525159 143.434446,32.8406469 143.082795,32.0001144 C142.731144,31.1595819 142.555321,30.2075644 142.555321,29.1440334 C142.555321,28.1319636 142.726855,27.2142531 143.06993,26.3908743 C143.413004,25.5674955 143.871859,24.8684917 144.446509,24.2938419 C145.021159,23.7191921 145.685856,23.2732019 146.44062,22.955858 C147.195384,22.6385141 147.975867,22.4798445 148.782092,22.4798445 Z M169.289268,16.8963349 L169.289268,33.2351764 C169.289268,33.6640196 169.297844,34.0885679 169.314998,34.5088342 C169.332152,34.9291004 169.357882,35.2678814 169.392189,35.5251873 L166.124421,35.5251873 C166.090114,35.3879575 166.060095,35.1821159 166.034365,34.9076563 C166.008634,34.6331967 165.995769,34.3501645 165.995769,34.0585511 C165.704156,34.5560092 165.253877,34.9762691 164.64492,35.3193436 C164.035962,35.6624181 163.302652,35.8339528 162.444965,35.8339528 C161.535818,35.8339528 160.703875,35.6667065 159.949111,35.3322089 C159.194347,34.9977112 158.546804,34.5345676 158.006461,33.9427641 C157.466119,33.3509605 157.041571,32.6476684 156.732804,31.8328664 C156.424036,31.0180645 156.269655,30.1303725 156.269655,29.1697639 C156.269655,28.2434627 156.419748,27.3772126 156.719938,26.5709875 C157.020129,25.7647624 157.4361,25.0657586 157.967866,24.4739551 C158.499631,23.8821516 159.138598,23.4147196 159.884785,23.0716451 C160.630972,22.7285706 161.45005,22.5570359 162.342044,22.5570359 C162.890963,22.5570359 163.366972,22.6084963 163.770084,22.7114186 C164.173197,22.814341 164.520554,22.942992 164.812168,23.0973755 C165.103781,23.251759 165.339641,23.4190054 165.519755,23.5991195 C165.699869,23.7792336 165.832809,23.9550566 165.918577,24.1265939 L165.918577,16.8963349 L169.289268,16.8963349 Z M197.695694,19.0834239 L197.695694,22.8658014 L200.24301,22.8658014 L200.24301,25.9019956 L197.695694,25.9019956 L197.695694,31.2024702 C197.695694,31.7513894 197.820057,32.133054 198.068786,32.3474756 C198.317515,32.5618972 198.690603,32.6691063 199.188061,32.6691063 C199.393906,32.6691063 199.599747,32.6605296 199.805592,32.6433759 C200.011437,32.6262222 200.157241,32.6004919 200.24301,32.5661845 L200.24301,35.396535 C200.088626,35.4651499 199.852766,35.5337638 199.535422,35.6023787 C199.218078,35.6709936 198.810684,35.7053005 198.313226,35.7053005 C197.078157,35.7053005 196.10041,35.3622312 195.379953,34.6760822 C194.659497,33.9899331 194.299274,33.0293389 194.299274,31.7942707 L194.299274,25.9019956 L192.009263,25.9019956 L192.009263,22.8658014 L192.652524,22.8658014 C193.32152,22.8658014 193.814682,22.6728249 194.132026,22.2868661 C194.44937,21.9009072 194.608039,21.4248985 194.608039,20.8588256 L194.608039,19.0834239 L197.695694,19.0834239 Z M257.261707,19.0834239 L257.261707,22.8658014 L259.809023,22.8658014 L259.809023,25.9019956 L257.261707,25.9019956 L257.261707,31.2024702 C257.261707,31.7513894 257.38607,32.133054 257.634799,32.3474756 C257.883528,32.5618972 258.256616,32.6691063 258.754074,32.6691063 C258.959919,32.6691063 259.16576,32.6605296 259.371605,32.6433759 C259.506391,32.6321437 259.615434,32.6172343 259.698736,32.5986475 C259.517097,32.9915733 259.416869,33.4291542 259.416869,33.8901446 C259.416869,34.437159 259.557994,34.9512121 259.80582,35.3978812 C259.654639,35.4651499 259.418779,35.5337638 259.101435,35.6023787 C258.784091,35.6709936 258.376696,35.7053005 257.879238,35.7053005 C256.64417,35.7053005 255.666423,35.3622312 254.945966,34.6760822 C254.22551,33.9899331 253.865287,33.0293389 253.865287,31.7942707 L253.865287,25.9019956 L251.575276,25.9019956 L251.575276,22.8658014 L252.218537,22.8658014 C252.887533,22.8658014 253.380695,22.6728249 253.698039,22.2868661 C254.015383,21.9009072 254.174052,21.4248985 254.174052,20.8588256 L254.174052,19.0834239 L257.261707,19.0834239 Z M176.082109,17.2822917 L176.082109,35.5251873 L172.479845,35.5251873 L172.479845,17.2822917 L176.082109,17.2822917 Z M68.9662074,22.8658014 L68.9662074,35.5251873 L65.5440563,35.5251873 L65.5440563,22.8658014 L68.9662074,22.8658014 Z M222.628509,22.7628796 C222.765739,22.7628796 222.898679,22.7671679 223.027331,22.7757448 C223.155984,22.7843216 223.288924,22.7971867 223.426154,22.8143405 L223.426154,26.262222 C223.083079,26.1936071 222.74001,26.1593002 222.396935,26.1593002 C221.950938,26.1593002 221.530678,26.2193373 221.136143,26.3394134 C220.741607,26.4594895 220.398538,26.6567543 220.106924,26.9312139 C219.815311,27.2056735 219.579451,27.5701847 219.399337,28.0247585 C219.219223,28.4793322 219.129167,29.049685 219.129167,29.735834 L219.129167,35.5251873 L215.707016,35.5251873 L215.707016,22.8658014 L219.026245,22.8658014 L219.026245,24.7441249 C219.214936,24.3324355 219.459373,23.9936545 219.759563,23.7277718 C220.059753,23.461889 220.377093,23.2603358 220.71159,23.123106 C221.046088,22.9858762 221.38058,22.8915321 221.715078,22.8400709 C222.049576,22.7886098 222.35405,22.7628796 222.628509,22.7628796 Z M186.194179,22.5313054 C186.983251,22.5313054 187.665101,22.6642448 188.239751,22.9301275 C188.814401,23.1960103 189.290409,23.5519447 189.667791,23.9979416 C190.045173,24.4439384 190.323917,24.975696 190.504031,25.5932301 C190.684145,26.2107642 190.774201,26.862596 190.774201,27.548745 L190.774201,35.5251873 L187.35205,35.5251873 L187.35205,28.1405455 C187.35205,27.4200891 187.16765,26.8197177 186.798845,26.3394134 C186.43004,25.8591091 185.833957,25.6189605 185.010578,25.6189605 C184.255814,25.6189605 183.672596,25.8719742 183.260907,26.3780091 C182.849218,26.884044 182.643376,27.5058572 182.643376,28.2434674 L182.643376,35.5251873 L179.221225,35.5251873 L179.221225,22.8658014 L182.540454,22.8658014 L182.540454,24.4353594 C182.93499,23.7835178 183.471036,23.3032207 184.148608,22.9944537 C184.82618,22.6856866 185.50803,22.5313054 186.194179,22.5313054 Z M50.8776946,17.2822917 L50.8776946,24.6154726 L58.8284065,24.6154726 L58.8284065,17.2822917 L62.4049403,17.2822917 L62.4049403,35.5251873 L58.8284065,35.5251873 L58.8284065,27.9604323 L50.8776946,27.9604323 L50.8776946,35.5251873 L47.3268912,35.5251873 L47.3268912,17.2822917 L50.8776946,17.2822917 Z M232.045857,22.5313054 C232.834929,22.5313054 233.516779,22.6642448 234.091429,22.9301275 C234.666079,23.1960103 235.142087,23.5519447 235.519469,23.9979416 C235.896851,24.4439384 236.175595,24.975696 236.355709,25.5932301 C236.535823,26.2107642 236.625879,26.862596 236.625879,27.548745 L236.625879,35.5251873 L233.203728,35.5251873 L233.203728,28.1405455 C233.203728,27.4200891 233.019328,26.8197177 232.650523,26.3394134 C232.281718,25.8591091 231.685635,25.6189605 230.862256,25.6189605 C230.107492,25.6189605 229.524274,25.8719742 229.112585,26.3780091 C228.700896,26.884044 228.495054,27.5058572 228.495054,28.2434674 L228.495054,35.5251873 L225.072903,35.5251873 L225.072903,22.8658014 L228.392132,22.8658014 L228.392132,24.4353594 C228.786668,23.7835178 229.322714,23.3032207 230.000286,22.9944537 C230.677858,22.6856866 231.359708,22.5313054 232.045857,22.5313054 Z M89.8593402,16.8963349 L89.8593402,23.9207502 C90.2710296,23.4232922 90.7942104,23.0673577 91.4288982,22.8529362 C92.063586,22.6385146 92.6811109,22.5313054 93.2814912,22.5313054 C94.0877163,22.5313054 94.7867201,22.6642448 95.3785237,22.9301275 C95.9703272,23.1960103 96.459201,23.5519447 96.8451598,23.9979416 C97.2311187,24.4439384 97.5184392,24.975696 97.7071302,25.5932301 C97.8958212,26.2107642 97.9901653,26.862596 97.9901653,27.548745 L97.9901653,35.5251873 L94.5680142,35.5251873 L94.5680142,28.1405455 C94.5680142,27.4200891 94.3836144,26.8197177 94.0148093,26.3394134 C93.6460042,25.8591091 93.0499212,25.6189605 92.2265424,25.6189605 C91.506086,25.6189605 90.9400215,25.8548207 90.5283321,26.3265481 C90.1166427,26.7982756 89.8936476,27.3857819 89.8593402,28.0890846 L89.8593402,35.5251873 L86.4371891,35.5251873 L86.4371891,16.8963349 L89.8593402,16.8963349 Z M162.856653,25.6189605 C161.981813,25.6189605 161.239925,25.9277229 160.630968,26.5452571 C160.022011,27.1627912 159.717537,28.037618 159.717537,29.1697639 C159.717537,30.3019098 160.013434,31.1853133 160.605238,31.8200012 C161.197041,32.454689 161.947505,32.7720282 162.856653,32.7720282 C163.731493,32.7720282 164.469092,32.454689 165.069472,31.8200012 C165.669853,31.1853133 165.970038,30.293333 165.970038,29.1440334 C165.970038,28.0118876 165.669853,27.1413491 165.069472,26.5323918 C164.469092,25.9234346 163.731493,25.6189605 162.856653,25.6189605 Z M121.610727,25.644691 C121.16473,25.644691 120.753047,25.72617 120.375665,25.8891303 C119.998283,26.0520907 119.66379,26.2836625 119.372177,26.5838527 C119.080563,26.8840429 118.85328,27.2528425 118.69032,27.6902625 C118.527359,28.1276825 118.44588,28.6294214 118.44588,29.1954943 C118.44588,29.7615673 118.527359,30.2633062 118.69032,30.7007262 C118.85328,31.1381462 119.080563,31.5112341 119.372177,31.8200012 C119.66379,32.1287682 119.998283,32.3646284 120.375665,32.5275888 C120.753047,32.6905492 121.16473,32.7720282 121.610727,32.7720282 C122.485567,32.7720282 123.227454,32.4589774 123.836411,31.8328664 C124.445369,31.2067554 124.749843,30.3276402 124.749843,29.1954943 C124.749843,28.0633485 124.445369,27.1885216 123.836411,26.5709875 C123.227454,25.9534534 122.485567,25.644691 121.610727,25.644691 Z M77.4315284,25.6189605 C77.0026853,25.6189605 76.6038672,25.6918628 76.2350621,25.8376694 C75.866257,25.9834761 75.5446295,26.1978944 75.2701699,26.4809309 C74.9957102,26.7639674 74.7812919,27.1027484 74.6269084,27.497284 C74.4725248,27.8918197 74.3953342,28.3292332 74.3953342,28.8095375 C74.3953342,29.8044535 74.6783665,30.5892247 75.2444394,31.1638745 C75.8105123,31.7385243 76.5395347,32.0258449 77.4315284,32.0258449 C78.3063684,32.0258449 79.0225257,31.7342359 79.5800218,31.1510092 C80.1375178,30.5677826 80.4162617,29.7872998 80.4162617,28.8095375 C80.4162617,27.8317751 80.1246527,27.0555807 79.5414261,26.4809309 C78.9581994,25.9062811 78.2549072,25.6189605 77.4315284,25.6189605 Z M148.833553,25.2587341 C148.387556,25.2587341 147.993026,25.3359247 147.649951,25.4903082 C147.306877,25.6446918 147.015268,25.8419566 146.775116,26.0821088 C146.534964,26.3222609 146.350564,26.5881397 146.221911,26.879753 C146.093258,27.1713663 146.020356,27.4629753 146.003202,27.7545886 L151.663903,27.7545886 C151.646749,27.4458216 151.582424,27.1413475 151.470925,26.8411573 C151.359425,26.5409671 151.187891,26.2750884 150.956315,26.0435131 C150.72474,25.8119378 150.433131,25.6232497 150.08148,25.477443 C149.729828,25.3316363 149.313857,25.2587341 148.833553,25.2587341 Z M244.653782,25.2587341 C244.207786,25.2587341 243.813256,25.3359247 243.470181,25.4903082 C243.127107,25.6446918 242.835498,25.8419566 242.595346,26.0821088 C242.355193,26.3222609 242.170794,26.5881397 242.042141,26.879753 C241.913488,27.1713663 241.840586,27.4629753 241.823432,27.7545886 L247.484133,27.7545886 C247.466979,27.4458216 247.402654,27.1413475 247.291154,26.8411573 C247.179655,26.5409671 247.008121,26.2750884 246.776545,26.0435131 C246.54497,25.8119378 246.253361,25.6232497 245.90171,25.477443 C245.550058,25.3316363 245.134087,25.2587341 244.653782,25.2587341 Z M207.576191,25.2587341 C207.130194,25.2587341 206.735664,25.3359247 206.39259,25.4903082 C206.049515,25.6446918 205.757906,25.8419566 205.517754,26.0821088 C205.277602,26.3222609 205.093202,26.5881397 204.964549,26.879753 C204.835896,27.1713663 204.762994,27.4629753 204.74584,27.7545886 L210.406541,27.7545886 C210.389388,27.4458216 210.325062,27.1413475 210.213563,26.8411573 C210.102064,26.5409671 209.930529,26.2750884 209.698954,26.0435131 C209.467378,25.8119378 209.175769,25.6232497 208.824118,25.477443 C208.472467,25.3316363 208.056495,25.2587341 207.576191,25.2587341 Z M135.376522,25.2587341 C134.930526,25.2587341 134.535996,25.3359247 134.192921,25.4903082 C133.849847,25.6446918 133.558238,25.8419566 133.318086,26.0821088 C133.077934,26.3222609 132.893534,26.5881397 132.764881,26.879753 C132.636228,27.1713663 132.563326,27.4629753 132.546172,27.7545886 L138.206873,27.7545886 C138.189719,27.4458216 138.125394,27.1413475 138.013894,26.8411573 C137.902395,26.5409671 137.730861,26.2750884 137.499285,26.0435131 C137.26771,25.8119378 136.976101,25.6232497 136.62445,25.477443 C136.272798,25.3316363 135.856827,25.2587341 135.376522,25.2587341 Z M67.2422666,16.5875693 C67.842647,16.5875693 68.3443859,16.793411 68.7474985,17.2051004 C69.150611,17.6167898 69.3521643,18.1228171 69.3521643,18.7231975 C69.3521643,19.2892704 69.150611,19.7781442 68.7474985,20.1898336 C68.3443859,20.601523 67.842647,20.8073647 67.2422666,20.8073647 C66.65904,20.8073647 66.1615894,20.601523 65.7499,20.1898336 C65.3382106,19.7781442 65.132369,19.2892704 65.132369,18.7231975 C65.132369,18.1228171 65.3382106,17.6167898 65.7499,17.2051004 C66.1615894,16.793411 66.65904,16.5875693 67.2422666,16.5875693 Z M31.744954,1.41328212 C35.0428276,1.41328212 37.8806684,3.38153677 39.1462957,6.2066448 L54.0339643,9.51269736 L35.7975013,9.51269736 C35.7975013,7.2761056 33.9831141,5.46298974 31.744954,5.46298974 C29.9965956,5.46298974 28.5068272,6.56936945 27.9385132,8.11972896 L24.401978,6.07934016 C25.6949912,3.3225825 28.4968458,1.41328212 31.744954,1.41328212 Z"/><path fill="#7096FF" fill-rule="nonzero" d="M269.47081,25.7411802 C270.114075,25.7411802 270.689788,25.8344522 271.197967,26.0209989 C271.706146,26.2075457 272.146776,26.4487663 272.51987,26.7446681 C272.892963,27.0405699 273.195293,27.381495 273.426868,27.7674539 C273.658444,28.1534127 273.82569,28.5457983 273.928612,28.9446224 L271.632169,29.7165361 C271.516381,29.317712 271.294458,28.9510567 270.966393,28.616559 C270.638328,28.2820614 270.159103,28.1148151 269.528704,28.1148151 C269.194206,28.1148151 268.882227,28.172708 268.592758,28.2884957 C268.303289,28.4042833 268.049203,28.5747459 267.830493,28.7998885 C267.611783,29.0250312 267.438105,29.3048471 267.309452,29.6393448 C267.180799,29.9738424 267.116473,30.3533629 267.116473,30.7779176 C267.116473,31.2024723 267.180799,31.5819928 267.309452,31.9164904 C267.438105,32.250988 267.615,32.5340203 267.840142,32.7655956 C268.065285,32.9971708 268.322587,33.1708497 268.612056,33.2866374 C268.901525,33.402425 269.213504,33.460318 269.548002,33.460318 C269.869634,33.460318 270.155882,33.4120738 270.406756,33.3155841 C270.657629,33.2190944 270.873119,33.0936597 271.053233,32.9392762 C271.233348,32.7848926 271.37808,32.6112138 271.487435,32.4182344 C271.59679,32.2252549 271.677197,32.038711 271.728658,31.8585969 L273.986506,32.6112128 C273.883583,33.0100369 273.713121,33.3992062 273.475113,33.7787324 C273.237105,34.1582586 272.931559,34.4991837 272.558465,34.8015181 C272.185372,35.1038525 271.747958,35.3482895 271.246212,35.5348362 C270.744465,35.721383 270.178401,35.814655 269.548002,35.814655 C268.853276,35.814655 268.200372,35.6892202 267.58927,35.438347 C266.978169,35.1874738 266.447484,34.8368998 265.997198,34.3866145 C265.870092,34.2595079 265.750674,34.1259948 265.638945,33.9860749 L265.641323,33.8901446 L265.641323,33.8901446 C265.641323,32.9695133 265.241585,32.142246 264.606206,31.5724409 C264.567794,31.3169916 264.54986,31.0517147 264.54986,30.7779176 C264.54986,30.0445958 264.675295,29.369178 264.926168,28.7516439 C265.177041,28.1341098 265.524399,27.6034244 265.968251,27.1595718 C266.412104,26.7157191 266.933141,26.3683614 267.531377,26.1174882 C268.129613,25.8666149 268.776084,25.7411802 269.47081,25.7411802 Z M279.274115,25.7411802 C279.981706,25.7411802 280.641043,25.8666149 281.252144,26.1174882 C281.863246,26.3683614 282.390715,26.7157191 282.834567,27.1595718 C283.27842,27.6034244 283.625778,28.1341098 283.876651,28.7516439 C284.127524,29.369178 284.252959,30.0445958 284.252959,30.7779176 C284.252959,31.5112393 284.127524,32.1834409 283.876651,32.7945423 C283.625778,33.4056438 283.27842,33.9363292 282.834567,34.3866145 C282.390715,34.8368998 281.863246,35.1874738 281.252144,35.438347 C280.641043,35.6892202 279.981706,35.814655 279.274115,35.814655 C278.566524,35.814655 277.907188,35.6892202 277.296086,35.438347 C276.684985,35.1874738 276.157516,34.8368998 275.713663,34.3866145 C275.26981,33.9363292 274.922453,33.4056438 274.671579,32.7945423 C274.420706,32.1834409 274.295271,31.5112393 274.295271,30.7779176 C274.295271,30.0445958 274.420706,29.369178 274.671579,28.7516439 C274.922453,28.1341098 275.26981,27.6034244 275.713663,27.1595718 C276.157516,26.7157191 276.684985,26.3683614 277.296086,26.1174882 C277.907188,25.8666149 278.566524,25.7411802 279.274115,25.7411802 Z M262.517154,32.1480645 C262.761594,32.1480645 262.993166,32.1930924 263.211876,32.2831494 C263.430586,32.3732065 263.620346,32.4986412 263.781162,32.6594574 C263.941979,32.8202736 264.067413,33.0068176 264.15747,33.2190949 C264.247527,33.4313722 264.292555,33.6597278 264.292555,33.9041684 C264.292555,34.148609 264.247527,34.3769645 264.15747,34.5892419 C264.067413,34.8015192 263.941979,34.9880632 263.781162,35.1488793 C263.620346,35.3096955 263.430586,35.4351302 263.211876,35.5251873 C262.993166,35.6152444 262.761594,35.6602722 262.517154,35.6602722 C262.028272,35.6602722 261.613373,35.4898096 261.272443,35.1488793 C260.931512,34.807949 260.76105,34.3930495 260.76105,33.9041684 C260.76105,33.4152872 260.931512,33.0003877 261.272443,32.6594574 C261.613373,32.3185271 262.028272,32.1480645 262.517154,32.1480645 Z M296.564984,25.760478 C297.002404,25.760478 297.426952,25.8280198 297.838641,25.9631054 C298.250331,26.098191 298.616986,26.3136814 298.938619,26.6095832 C299.260251,26.905485 299.517553,27.2817892 299.710532,27.7385071 C299.903512,28.195225 300,28.7387755 300,29.3691749 L300,35.5251873 L297.510578,35.5251873 L297.510578,29.8902167 C297.510578,29.375605 297.378711,28.9478404 297.114972,28.6069101 C296.851234,28.2659798 296.423469,28.0955172 295.831666,28.0955172 C295.278458,28.0955172 294.847477,28.2788449 294.53871,28.6455058 C294.229943,29.0121667 294.075562,29.4527964 294.075562,29.9674081 L294.075562,35.5251873 L291.528246,35.5251873 L291.528246,29.8902167 C291.528246,29.375605 291.393163,28.9478404 291.122992,28.6069101 C290.85282,28.2659798 290.428272,28.0955172 289.849334,28.0955172 C289.283261,28.0955172 288.845847,28.2756286 288.53708,28.6358569 C288.228313,28.9960851 288.073932,29.4399311 288.073932,29.9674081 L288.073932,35.5251873 L285.507319,35.5251873 L285.507319,26.0306479 L287.958145,26.0306479 L287.958145,27.1885185 C288.086798,26.9569432 288.254044,26.7511016 288.459889,26.5709875 C288.665734,26.3908734 288.894089,26.2429247 289.144963,26.1271371 C289.395836,26.0113494 289.65957,25.9212937 289.936174,25.8569673 C290.212778,25.7926408 290.479729,25.760478 290.737035,25.760478 C291.393165,25.760478 291.965662,25.8955616 292.454543,26.1657328 C292.943424,26.435904 293.310079,26.8282895 293.55452,27.3429013 C293.927613,26.7639631 294.365027,26.3554961 294.866773,26.1174882 C295.36852,25.8794802 295.934584,25.760478 296.564984,25.760478 Z M279.274115,28.0762194 C278.965348,28.0762194 278.663018,28.1341123 278.367116,28.2499 C278.071215,28.3656876 277.813913,28.5361502 277.595203,28.7612928 C277.376493,28.9864355 277.199598,29.2662514 277.064512,29.6007491 C276.929426,29.9352467 276.861885,30.3276323 276.861885,30.7779176 C276.861885,31.2282029 276.929426,31.6205885 277.064512,31.9550861 C277.199598,32.2895837 277.376493,32.5693997 277.595203,32.7945423 C277.813913,33.019685 278.071215,33.1901476 278.367116,33.3059352 C278.663018,33.4217228 278.965348,33.4796158 279.274115,33.4796158 C279.582882,33.4796158 279.885212,33.4217228 280.181114,33.3059352 C280.477016,33.1901476 280.734318,33.019685 280.953028,32.7945423 C281.171738,32.5693997 281.348633,32.2895837 281.483718,31.9550861 C281.618804,31.6205885 281.686346,31.2282029 281.686346,30.7779176 C281.686346,30.3276323 281.618804,29.9352467 281.483718,29.6007491 C281.348633,29.2662514 281.171738,28.9864355 280.953028,28.7612928 C280.734318,28.5361502 280.477016,28.3656876 280.181114,28.2499 C279.885212,28.1341123 279.582882,28.0762194 279.274115,28.0762194 Z"/><path fill="#7096FF" fill-rule="nonzero" d="M0,12.8240741 L25.666133,12.8240741 C29.7186803,14.8489279 27.0169821,20.9234894 17.5610384,20.9234894 C12.8330665,20.9234894 6.3039625,19.1236193 0,12.8240741 Z" opacity=".72"/><path fill="#7096FF" fill-rule="nonzero" d="M0.389926232,8.37031992 L25.666133,12.8240741 C29.3052543,15.5213902 25.5890248,21.0348492 16.2767381,19.3939923 C11.6205947,18.5735639 5.50344578,15.6680654 0.389926232,8.37031992 Z" opacity=".56"/><path fill="#7096FF" fill-rule="nonzero" d="M1.54785722,4.05189078 L25.666133,12.8240741 C28.7812554,16.1118959 24.1634103,20.8967287 15.2777298,17.6648717 C10.8348895,16.0489432 5.3155621,12.1260983 1.54785722,4.05189078 Z" opacity=".4"/><path fill="#7096FF" fill-rule="nonzero" d="M3.43860981,0 L25.666133,12.8240741 C28.1626051,16.6025028 22.7834554,20.5133247 14.5943678,15.7886659 C10.4998241,13.4263364 5.74602023,8.60533875 3.43860981,0 Z" opacity=".24"/></g></svg>