<?xml version="1.0" encoding="UTF-8"?><svg id="Layer_2" xmlns="http://www.w3.org/2000/svg" viewBox="0 0 189.22 35.85"><defs><style>.cls-1{fill:#1990ff;}</style></defs><g id="Layer_1-2"><path class="cls-1" d="m85.06,9.35c-1.92-1.3-4.79-1.95-8.63-1.95-3.42,0-6.06.79-7.91,2.36-1.64,1.37-2.6,3.12-2.88,5.24h6.88c.34-.75.89-1.27,1.64-1.54.75-.27,1.61-.41,2.57-.41.89,0,1.87.15,2.93.46,1.06.31,1.59.98,1.59,2,0,.57-.29,1.05-.71,1.4-.6.5-1.38.76-2.12.95-.33.08-.66.15-.99.21-1.26.22-2.53.4-3.79.58-1.22.18-2.41.49-3.56.95-.94.38-1.83.86-2.64,1.45-1.68,1.23-2.52,3.29-2.52,6.16,0,3.08.92,5.29,2.77,6.63,1.85,1.33,4.01,2,6.47,2,1.23,0,2.65-.09,4.26-.26,1.61-.17,3.13-.63,4.57-1.39,1.37-.68,2.55-1.8,3.54-3.34.99-1.54,1.49-3.68,1.49-6.42v-9.35c0-2.47-.99-4.38-2.98-5.75Zm-3.7,14.79c0,1.92-.55,3.43-1.64,4.52-1.1,1.1-2.6,1.64-4.52,1.64-1.17,0-2.05-.27-2.67-.82-.62-.62-.93-1.44-.93-2.47,0-.75.22-1.7.72-2.26.5-.56,1.46-1.08,2.67-1.34s2.36-.51,2.36-.51c1.71-.41,3.05-.86,4.01-1.34v2.57Zm106.31,8.55c.15-.12.22-.31.22-.58,0-.28-.08-.49-.25-.63-.17-.14-.42-.21-.77-.21h-1.13s-.02,2.91-.02,2.91h.45s0-1.25,0-1.25h.48s.79,1.26.79,1.26h.49s-.83-1.29-.83-1.29c.22-.02.4-.09.55-.21Zm-1-.12h-.47s0-.93,0-.93h.6c.08,0,.15,0,.23.02.08.01.15.03.21.06.06.03.11.08.15.13.04.06.06.14.06.23,0,.12-.02.21-.06.27-.04.06-.1.11-.17.14-.07.03-.15.05-.24.06-.09,0-.19,0-.29,0Zm2.35-.81c-.13-.3-.31-.57-.54-.79-.23-.22-.49-.4-.79-.53s-.62-.19-.97-.2c-.34,0-.67.06-.97.18s-.57.3-.8.52c-.23.22-.41.48-.55.78-.13.3-.2.63-.21.98,0,.36.06.69.19,1,.13.31.31.57.54.8.23.23.49.4.8.53.3.13.63.19.97.19.34,0,.66-.06.97-.18.3-.12.57-.3.8-.52.23-.22.41-.49.54-.79.13-.3.2-.64.21-1,0-.35-.06-.68-.19-.98Zm-.42,1.83c-.11.26-.25.48-.44.67-.19.19-.4.34-.65.45-.25.11-.52.16-.81.16-.29,0-.57-.06-.82-.17-.25-.11-.47-.26-.65-.45-.18-.19-.33-.42-.43-.68-.1-.26-.15-.54-.15-.85,0-.3.06-.58.16-.83.11-.26.25-.48.44-.67.19-.19.4-.34.66-.44.25-.11.52-.16.82-.16.29,0,.56.06.81.17.25.11.46.26.65.45.18.19.33.41.43.67.1.26.15.54.15.83,0,.31-.06.59-.16.85ZM49.48,7.39c-3.9,0-6.95,1.27-9.14,3.8-2.12,2.47-3.18,5.89-3.18,10.27s1.09,8.11,3.29,10.58c2.19,2.53,5.24,3.8,9.14,3.8,3.22,0,5.89-.79,8.01-2.36,2.12-1.5,3.56-3.7,4.31-6.57,0,0-4.27,0-5.15,0-.6,0-1.41.07-2.07.67-.72.65-1.14,1.26-1.86,1.65-.8.43-1.74.65-2.84.65-1.78,0-3.12-.55-4.01-1.64-.96-1.03-1.47-2.6-1.54-4.72h17.77c.07-.14.1-.37.1-.72v-1.13c0-4.52-1.1-8.04-3.29-10.58-2.26-2.47-5.44-3.7-9.55-3.7Zm-5.03,11.5c.07-1.78.58-3.15,1.54-4.11.96-.96,2.19-1.44,3.7-1.44,1.64,0,2.91.48,3.8,1.44.82.89,1.3,2.26,1.44,4.11h-10.48ZM30.94,0h-3.7v35.33h7.19V3.39c0-.96-.34-1.76-1.03-2.41-.68-.65-1.51-.98-2.47-.98Zm-11.87,26.94s-.03,0-.04,0c-.14.02-.29.05-.43.08-.03,0-.05.01-.08.02-.33.1-.67.26-.98.53-.72.65-1.14,1.27-1.87,1.66-.79.42-1.73.64-2.82.64-1.78,0-3.12-.55-4.01-1.64-1.23-1.3-1.85-3.53-1.85-6.68s.62-5.41,1.85-6.78c.96-.96,2.19-1.44,3.7-1.44,1.64,0,2.91.48,3.8,1.44.34.34.68.86,1.03,1.54h7.19c-.55-1.98-1.44-3.73-2.67-5.24-2.26-2.47-5.44-3.7-9.55-3.7s-6.95,1.27-9.14,3.8c-2.12,2.47-3.18,5.89-3.18,10.27s1.09,8.11,3.29,10.58c2.19,2.53,5.24,3.8,9.14,3.8,3.22,0,5.89-.79,8.01-2.36,2.12-1.5,3.56-3.7,4.31-6.57,0,0-4.62,0-5.15,0-.16,0-.34,0-.53.03ZM124.55,0h-3.7v5.65h7.19v-2.16c0-.96-.34-1.78-1.03-2.47-.69-.68-1.51-1.03-2.47-1.03Zm26.98,9.76c-2.53-1.57-5.31-2.36-8.32-2.36-2.94.14-5.63.99-8.06,2.57-2.43,1.58-3.65,4.69-3.65,9.35v16.02h7.19v-17.46c0-1.64.48-2.84,1.44-3.59.96-.75,2.05-1.13,3.29-1.13s2.34.38,3.34,1.13c.99.75,1.49,1.95,1.49,3.59v13.97c0,1.03.32,1.87.98,2.52.65.65,1.49.98,2.52.98h3.6v-16.02c0-4.79-1.27-7.98-3.8-9.55Zm31.58-1.75h-8.63l-8.73,10.07V3.39c0-.89-.34-1.68-1.03-2.36-.68-.68-1.51-1.03-2.47-1.03h-3.7v35.33h7.19v-10.37c0-.55.37-1.16,1.13-1.23.8-.08,1.64.51,2.67,2.36l5.03,9.24h8.63l-9.86-16.84,9.76-10.48Zm-77.56,0c-1.85,0-3.65.24-5.39.72-1.75.48-3.27,1.23-4.57,2.26-1.37,1.1-2.45,2.55-3.23,4.37-.79,1.81-1.18,4.06-1.18,6.73v13.25h7.19v-14.07c0-2.05.48-3.56,1.44-4.52.96-.96,2.43-1.44,4.42-1.44h2.36v-7.29h-1.03Zm19,0h-3.7v27.32h7.19V11.5c0-.96-.34-1.78-1.03-2.47-.69-.68-1.51-1.03-2.47-1.03ZM113.41,0h-3.7v35.33h7.19V3.39c0-.96-.34-1.76-1.03-2.41-.68-.65-1.51-.98-2.47-.98Z"/></g></svg>